<svg data-v-423bf9ae="" xmlns="http://www.w3.org/2000/svg" viewBox="0 0 498 90" class="iconLeftSlogan"><!----><!----><!----><g data-v-423bf9ae="" id="8a9560ca-667f-4890-b371-5defaeb985d3" fill="#000000" transform="matrix(5.617977869218204,0,0,5.617977869218204,103.49325386217154,-15.730337527506329)"><path d="M6.55 10.22C6.44 10.82 6.12 11.34 5.61 11.79C5.11 12.24 4.56 12.46 3.95 12.46C3.33 12.46 2.86 12.24 2.52 11.79C2.20 11.34 2.10 10.82 2.21 10.22C2.32 9.62 2.63 9.10 3.14 8.65C3.64 8.20 4.20 7.98 4.82 7.98C5.43 7.98 5.89 8.20 6.23 8.65C6.55 9.10 6.66 9.62 6.55 10.22ZM6.93 13.30L8.13 7.14L7.15 7.14L6.94 8.19C6.90 8.12 6.85 8.05 6.80 7.98C6.36 7.32 5.70 7.00 4.84 7.00C3.99 7.00 3.22 7.32 2.51 7.98C1.82 8.61 1.40 9.37 1.23 10.22C1.06 11.07 1.19 11.83 1.64 12.46C2.09 13.12 2.74 13.44 3.60 13.44C4.45 13.44 5.22 13.12 5.94 12.46C6.01 12.39 6.09 12.32 6.16 12.25L5.95 13.30ZM14.67 10.19C14.56 10.79 14.22 11.33 13.71 11.76C13.19 12.19 12.61 12.42 12.00 12.42C11.38 12.42 10.89 12.19 10.54 11.76C10.19 11.33 10.08 10.79 10.19 10.19C10.32 9.58 10.64 9.04 11.16 8.61C11.68 8.18 12.25 7.95 12.87 7.95C13.48 7.95 13.97 8.18 14.32 8.61C14.67 9.04 14.80 9.58 14.67 10.19ZM15.65 10.19C15.82 9.31 15.65 8.55 15.15 7.92C14.64 7.29 13.94 6.97 13.06 6.97C12.18 6.97 11.35 7.29 10.60 7.92C9.84 8.55 9.38 9.31 9.21 10.19C9.04 11.09 9.21 11.84 9.72 12.46C10.23 13.09 10.93 13.40 11.82 13.40C12.70 13.40 13.51 13.09 14.27 12.46C15.02 11.84 15.48 11.09 15.65 10.19ZM20.90 10.58L20.90 9.79L16.21 9.79L16.21 10.58ZM26.59 8.41L26.84 7.14C26.66 7.06 26.45 7.01 26.24 7.01C25.55 7.01 24.96 7.39 24.49 8.16L24.40 8.41L24.65 7.14L23.67 7.14L22.47 13.30L23.45 13.30L24.05 10.22C24.15 9.72 24.36 9.25 24.67 8.85C24.84 8.64 25.02 8.46 25.23 8.32C25.44 8.18 25.68 8.11 25.93 8.11C26.18 8.11 26.40 8.20 26.59 8.41ZM32.47 10.19C32.35 10.79 32.02 11.33 31.50 11.76C30.98 12.19 30.41 12.42 29.79 12.42C29.18 12.42 28.69 12.19 28.34 11.76C27.99 11.33 27.87 10.79 27.99 10.19C28.11 9.58 28.43 9.04 28.95 8.61C29.47 8.18 30.04 7.95 30.66 7.95C31.28 7.95 31.77 8.18 32.12 8.61C32.47 9.04 32.59 9.58 32.47 10.19ZM33.45 10.19C33.61 9.31 33.45 8.55 32.94 7.92C32.44 7.29 31.74 6.97 30.86 6.97C29.97 6.97 29.15 7.29 28.39 7.92C27.64 8.55 27.17 9.31 27.01 10.19C26.84 11.09 27.01 11.84 27.51 12.46C28.03 13.09 28.73 13.40 29.61 13.40C30.49 13.40 31.30 13.09 32.06 12.46C32.82 11.84 33.28 11.09 33.45 10.19ZM35.50 13.30L35.71 12.25L35.84 12.46C36.29 13.12 36.95 13.44 37.80 13.44C38.65 13.44 39.42 13.12 40.14 12.46C40.82 11.83 41.26 11.07 41.43 10.22C41.59 9.37 41.45 8.61 41.01 7.98C40.56 7.32 39.90 7.00 39.05 7.00C38.19 7.00 37.42 7.32 36.71 7.98L36.50 8.19L37.55 2.80L36.57 2.80L34.52 13.30ZM40.45 10.22C40.33 10.82 40.01 11.34 39.51 11.79C39.00 12.24 38.46 12.46 37.84 12.46C37.23 12.46 36.75 12.24 36.41 11.79C36.09 11.34 35.99 10.82 36.11 10.22C36.22 9.62 36.53 9.10 37.03 8.65C37.53 8.20 38.09 7.98 38.71 7.98C39.33 7.98 39.79 8.20 40.12 8.65C40.45 9.10 40.56 9.62 40.45 10.22ZM48.15 10.19C48.03 10.79 47.70 11.33 47.18 11.76C46.66 12.19 46.09 12.42 45.47 12.42C44.86 12.42 44.37 12.19 44.02 11.76C43.67 11.33 43.55 10.79 43.67 10.19C43.79 9.58 44.11 9.04 44.63 8.61C45.15 8.18 45.72 7.95 46.34 7.95C46.96 7.95 47.45 8.18 47.80 8.61C48.15 9.04 48.27 9.58 48.15 10.19ZM49.13 10.19C49.29 9.31 49.13 8.55 48.62 7.92C48.12 7.29 47.42 6.97 46.54 6.97C45.65 6.97 44.83 7.29 44.07 7.92C43.32 8.55 42.85 9.31 42.69 10.19C42.52 11.09 42.69 11.84 43.19 12.46C43.71 13.09 44.41 13.40 45.29 13.40C46.17 13.40 46.98 13.09 47.74 12.46C48.50 11.84 48.96 11.09 49.13 10.19ZM50.46 8.05L52.00 8.05L50.97 13.30L51.95 13.30L52.98 8.05L54.50 8.05L54.68 7.14L53.16 7.14L53.62 4.75L52.64 4.75L52.18 7.14L50.64 7.14ZM57.41 5.01C57.32 4.89 57.18 4.83 57.01 4.83C56.84 4.83 56.67 4.89 56.53 5.01C56.39 5.14 56.29 5.29 56.27 5.46C56.24 5.63 56.27 5.77 56.36 5.89C56.46 6.02 56.60 6.08 56.77 6.08C56.94 6.08 57.11 6.02 57.25 5.89C57.39 5.77 57.48 5.63 57.51 5.46C57.54 5.29 57.51 5.14 57.41 5.01ZM55.86 13.30L57.06 7.14L56.08 7.14L54.88 13.30ZM64.54 9.35C64.48 8.65 64.22 8.09 63.76 7.67C63.28 7.24 62.66 7.01 61.96 7.01C61.08 7.01 60.28 7.34 59.54 7.97C58.81 8.60 58.37 9.34 58.20 10.22C58.03 11.09 58.18 11.84 58.66 12.49C58.88 12.78 59.18 13.02 59.53 13.19C59.88 13.36 60.24 13.44 60.63 13.44C61.03 13.44 61.39 13.38 61.71 13.27C62.76 12.92 63.56 12.26 64.11 11.28L63.00 11.28C62.75 11.63 62.44 11.90 62.06 12.11C61.68 12.32 61.31 12.42 60.91 12.42C60.31 12.42 59.86 12.21 59.53 11.77C59.19 11.34 59.09 10.82 59.21 10.22C59.32 9.63 59.63 9.13 60.13 8.69C60.35 8.50 60.62 8.33 60.90 8.22C61.18 8.11 61.50 8.04 61.87 8.04C62.23 8.04 62.57 8.16 62.87 8.40C63.18 8.64 63.38 8.96 63.48 9.35ZM66.37 12.42C66.16 12.25 66.04 11.98 66.01 11.58L64.97 11.58C64.95 12.85 65.63 13.48 67.06 13.48C67.40 13.48 67.70 13.45 68.01 13.37C68.32 13.29 68.61 13.16 68.88 13.01C69.41 12.68 69.75 12.19 69.87 11.54C70.00 10.88 69.78 10.40 69.20 10.09C68.95 9.97 68.68 9.86 68.39 9.79C68.10 9.72 67.80 9.65 67.55 9.56C67.30 9.48 67.09 9.37 66.93 9.24C66.78 9.11 66.72 8.90 66.78 8.62C66.84 8.34 66.98 8.15 67.23 8.01C67.47 7.88 67.75 7.81 68.05 7.81C68.36 7.81 68.60 7.87 68.80 7.98C68.99 8.09 69.10 8.32 69.15 8.67L70.20 8.67C70.18 8.05 70.01 7.60 69.66 7.36C69.31 7.11 68.82 7.00 68.24 7.00C67.63 7.00 67.10 7.15 66.61 7.48C66.12 7.78 65.80 8.25 65.69 8.86C65.63 9.17 65.66 9.44 65.77 9.66C65.88 9.88 66.09 10.08 66.39 10.22C66.64 10.35 66.91 10.44 67.20 10.51C67.49 10.58 67.77 10.68 68.03 10.77C68.63 10.98 68.89 11.27 68.82 11.66C68.70 12.33 68.17 12.67 67.27 12.67C66.88 12.67 66.58 12.59 66.37 12.42Z"></path></g><defs data-v-423bf9ae=""><linearGradient data-v-423bf9ae="" gradientTransform="rotate(25)" id="f6819340-2746-46e6-80a6-50390a59ad72" x1="0%" y1="0%" x2="100%" y2="0%"><stop data-v-423bf9ae="" offset="0%" style="stop-color: rgb(208, 233, 13); stop-opacity: 1;"></stop><stop data-v-423bf9ae="" offset="100%" style="stop-color: rgb(21, 54, 241); stop-opacity: 1;"></stop></linearGradient></defs><g data-v-423bf9ae="" id="ba6fa7f1-0065-4811-9f25-ad30de8fba60" transform="matrix(2.8125,0,0,2.8125,0,0)" stroke="none" fill="url(#f6819340-2746-46e6-80a6-50390a59ad72)"><path d="M4.029 14.362L14.362 4.028l.707.707L4.736 15.07zM17.135 27.47L27.47 17.135l.707.707-10.333 10.333zM4.029 17.841l.707-.707 10.333 10.334-.707.707zM17.135 4.735l.708-.707L28.176 14.36l-.707.707z"></path><g><path d="M16 1.414l1.683 1.683L16 4.779l-1.683-1.683L16 1.414M16 0l-3.097 3.097L16 6.194l3.097-3.097L16 0zM16 27.221l1.683 1.683L16 30.586l-1.683-1.683L16 27.221m0-1.415l-3.097 3.097L16 32l3.097-3.097L16 25.806zM3.097 14.317L4.779 16l-1.683 1.683L1.414 16l1.683-1.683m0-1.414L0 16l3.097 3.097L6.194 16l-3.097-3.097zM28.903 14.317L30.586 16l-1.683 1.683L27.221 16l1.682-1.683m0-1.414L25.806 16l3.097 3.097L32 16l-3.097-3.097z"></path></g></g><!----><g data-v-423bf9ae="" id="1a3669c7-2fba-45cc-bece-6e43586ba1f5" fill="#000000" transform="matrix(0.4468995958239261,0,0,0.4468995958239261,109.68717187953084,58.306250447083215)"><path d="M1.89 3.92L0.70 3.92L0.70 4.19C0.70 4.34 0.80 4.42 0.98 4.44L1.12 4.44C1.19 4.44 1.29 4.45 1.43 4.45C1.57 4.45 1.72 4.47 1.89 4.47L1.89 13.26C1.72 13.26 1.57 13.27 1.43 13.27C1.29 13.27 1.19 13.29 1.12 13.29L0.98 13.29C0.80 13.30 0.71 13.38 0.71 13.54L0.71 13.82L1.89 13.82L7.83 13.82L7.83 13.22L7.83 11.76L7.48 11.76C7.28 11.76 7.20 11.89 7.18 12.11C7.18 12.14 7.17 12.19 7.17 12.29C7.17 12.39 7.17 12.53 7.15 12.74C7.14 12.95 7.13 13.09 7.13 13.22L2.60 13.22L2.60 9.09L6.55 9.09L6.55 8.51L2.60 8.51L2.60 4.51L7.13 4.51C7.15 5.12 7.18 5.50 7.18 5.63C7.20 5.85 7.28 5.96 7.48 5.96L7.83 5.96L7.83 4.51L7.83 3.92ZM25.24 3.92L24.61 3.92L23.39 3.92L23.39 4.19C23.39 4.34 23.49 4.42 23.67 4.44L23.81 4.44C23.88 4.44 24.00 4.45 24.14 4.45C24.28 4.45 24.44 4.47 24.61 4.47L24.61 12.22C24.61 12.35 24.61 12.49 24.63 12.63L18.21 4.05C18.17 3.99 18.14 3.95 18.10 3.93C18.06 3.92 18.02 3.91 17.95 3.91L17.60 3.91L16.41 3.91L16.41 4.19C16.41 4.34 16.51 4.42 16.69 4.44L16.83 4.44C16.90 4.44 17.00 4.45 17.14 4.45C17.28 4.45 17.43 4.47 17.60 4.47L17.60 13.26C17.43 13.26 17.28 13.27 17.14 13.27C17.00 13.27 16.90 13.29 16.83 13.29L16.69 13.29C16.51 13.30 16.41 13.38 16.41 13.54L16.41 13.82L17.60 13.82L18.21 13.82L19.43 13.82L19.43 13.54C19.43 13.38 19.33 13.30 19.15 13.29L19.01 13.29C18.94 13.29 18.82 13.27 18.68 13.27C18.54 13.27 18.38 13.26 18.21 13.26L18.21 5.49C18.21 5.36 18.21 5.22 18.20 5.08L24.64 13.68C24.71 13.78 24.78 13.82 24.89 13.82L25.24 13.82L25.24 4.47C25.41 4.47 25.55 4.45 25.69 4.45C25.83 4.45 25.94 4.44 26.01 4.44L26.14 4.44C26.32 4.42 26.42 4.34 26.42 4.19L26.42 3.92ZM43.75 13.22L43.29 13.17L39.51 3.91L38.79 3.91L35 13.17L34.55 13.22C34.37 13.23 34.29 13.33 34.29 13.50L34.29 13.82L34.73 13.82L35.03 13.82L35.28 13.82L35.38 13.82L36.69 13.82L36.69 13.50C36.69 13.31 36.58 13.23 36.37 13.22C36.36 13.22 36.33 13.20 36.29 13.20C36.25 13.20 36.19 13.19 36.09 13.19C35.99 13.19 35.87 13.19 35.73 13.17L36.71 10.75L36.78 10.57L41.51 10.57L41.58 10.75L42.56 13.17C42.42 13.19 42.31 13.19 42.21 13.19C42.11 13.19 42.04 13.20 42 13.20C41.96 13.20 41.93 13.22 41.92 13.22C41.71 13.23 41.59 13.31 41.59 13.50L41.59 13.82L42.91 13.82L43.01 13.82L43.27 13.82L43.55 13.82L44.02 13.82L44.02 13.50C44.02 13.33 43.93 13.23 43.75 13.22ZM38.95 5.22C38.98 5.14 39.02 5.04 39.05 4.94C39.07 4.84 39.12 4.75 39.14 4.63C39.17 4.75 39.21 4.84 39.24 4.94C39.27 5.04 39.31 5.12 39.34 5.21L41.30 10.04L37.00 10.04ZM59.36 9.52C58.94 9.11 58.34 8.86 57.55 8.75C57.88 8.67 58.16 8.55 58.41 8.40C58.66 8.25 58.88 8.08 59.05 7.87C59.22 7.66 59.36 7.43 59.44 7.20C59.53 6.96 59.58 6.71 59.58 6.44C59.58 6.05 59.50 5.68 59.37 5.38C59.25 5.07 59.04 4.80 58.77 4.58C58.51 4.37 58.17 4.20 57.75 4.09C57.33 3.98 56.84 3.92 56.28 3.92L53.44 3.92L52.25 3.92L52.25 4.19C52.25 4.34 52.35 4.42 52.53 4.44L52.67 4.44C52.74 4.44 52.84 4.45 52.98 4.45C53.12 4.45 53.27 4.47 53.44 4.47L53.44 13.26C53.27 13.26 53.12 13.27 52.98 13.27C52.84 13.27 52.74 13.29 52.67 13.29L52.53 13.29C52.35 13.30 52.26 13.38 52.26 13.54L52.26 13.82L53.44 13.82L56.64 13.82C57.18 13.82 57.64 13.76 58.06 13.64C58.48 13.51 58.83 13.34 59.11 13.10C59.39 12.87 59.61 12.59 59.77 12.25C59.92 11.91 59.99 11.54 59.99 11.12C59.99 10.46 59.78 9.93 59.36 9.52ZM54.15 4.48L56.28 4.48C57.16 4.48 57.82 4.66 58.24 5.00C58.66 5.35 58.87 5.84 58.87 6.51C58.87 6.76 58.83 7.03 58.73 7.27C58.63 7.50 58.48 7.71 58.27 7.91C58.06 8.11 57.79 8.26 57.47 8.37C57.15 8.48 56.76 8.55 56.29 8.55L54.15 8.55ZM58.60 12.68C58.16 13.06 57.50 13.24 56.63 13.24L54.15 13.24L54.15 9.07L56.64 9.07C57.06 9.07 57.43 9.11 57.75 9.21C58.07 9.31 58.35 9.45 58.58 9.62C58.80 9.80 58.97 10.00 59.09 10.25C59.21 10.50 59.28 10.79 59.28 11.10C59.28 11.79 59.05 12.31 58.60 12.68ZM74.55 11.97C74.35 11.97 74.27 12.08 74.26 12.31C74.26 12.32 74.26 12.38 74.24 12.43C74.23 12.49 74.23 12.59 74.21 12.71C74.20 12.84 74.19 13.01 74.17 13.20L70.08 13.20L70.08 4.47C70.25 4.47 70.39 4.45 70.53 4.45C70.67 4.45 70.78 4.44 70.85 4.44L70.98 4.44C71.16 4.42 71.26 4.34 71.26 4.19L71.26 3.92L70.08 3.92L69.37 3.92L68.18 3.92L68.18 4.19C68.18 4.34 68.28 4.42 68.46 4.44L68.60 4.44C68.67 4.44 68.77 4.45 68.91 4.45C69.05 4.45 69.20 4.47 69.37 4.47L69.37 13.26C69.20 13.26 69.05 13.27 68.91 13.27C68.77 13.27 68.67 13.29 68.60 13.29L68.46 13.29C68.28 13.30 68.18 13.38 68.18 13.54L68.18 13.82L69.37 13.82L74.65 13.82L74.77 13.82L74.90 13.82L74.90 13.55L74.90 12.99L74.90 11.97L74.62 11.97ZM86.14 4.44C86.32 4.42 86.41 4.34 86.41 4.19L86.41 3.91L85.23 3.91L84.52 3.91L83.33 3.91L83.33 4.19C83.33 4.34 83.43 4.42 83.61 4.44L83.75 4.44C83.82 4.44 83.92 4.45 84.06 4.45C84.20 4.45 84.35 4.47 84.52 4.47L84.52 13.26C84.35 13.26 84.20 13.27 84.06 13.27C83.92 13.27 83.82 13.29 83.75 13.29L83.61 13.29C83.43 13.30 83.33 13.38 83.33 13.54L83.33 13.82L84.52 13.82L85.23 13.82L86.41 13.82L86.41 13.54C86.41 13.38 86.32 13.30 86.14 13.29L86.00 13.29C85.93 13.29 85.83 13.27 85.69 13.27C85.55 13.27 85.40 13.26 85.23 13.26L85.23 4.47C85.40 4.47 85.55 4.45 85.69 4.45C85.83 4.45 85.93 4.44 86.00 4.44ZM103.59 3.92L102.96 3.92L101.74 3.92L101.74 4.19C101.74 4.34 101.84 4.42 102.02 4.44L102.16 4.44C102.23 4.44 102.34 4.45 102.48 4.45C102.62 4.45 102.79 4.47 102.96 4.47L102.96 12.22C102.96 12.35 102.96 12.49 102.97 12.63L96.56 4.05C96.52 3.99 96.49 3.95 96.45 3.93C96.40 3.92 96.36 3.91 96.29 3.91L95.94 3.91L94.75 3.91L94.75 4.19C94.75 4.34 94.85 4.42 95.03 4.44L95.17 4.44C95.24 4.44 95.34 4.45 95.48 4.45C95.62 4.45 95.77 4.47 95.94 4.47L95.94 13.26C95.77 13.26 95.62 13.27 95.48 13.27C95.34 13.27 95.24 13.29 95.17 13.29L95.03 13.29C94.85 13.30 94.75 13.38 94.75 13.54L94.75 13.82L95.94 13.82L96.56 13.82L97.78 13.82L97.78 13.54C97.78 13.38 97.68 13.30 97.50 13.29L97.36 13.29C97.29 13.29 97.16 13.27 97.02 13.27C96.88 13.27 96.73 13.26 96.56 13.26L96.56 5.49C96.56 5.36 96.56 5.22 96.54 5.08L102.98 13.68C103.05 13.78 103.12 13.82 103.24 13.82L103.59 13.82L103.59 4.47C103.75 4.47 103.89 4.45 104.03 4.45C104.17 4.45 104.29 4.44 104.36 4.44L104.48 4.44C104.66 4.42 104.76 4.34 104.76 4.19L104.76 3.92ZM118.44 9.32L118.44 9.72C118.44 9.76 118.47 9.80 118.50 9.83C118.52 9.86 118.57 9.87 118.62 9.87L120.53 9.87L120.53 12.54C120.30 12.67 120.08 12.78 119.87 12.88C119.66 12.98 119.42 13.08 119.18 13.15C118.94 13.22 118.68 13.27 118.40 13.30C118.12 13.33 117.81 13.34 117.47 13.34C116.86 13.34 116.30 13.24 115.79 13.03C115.29 12.82 114.86 12.53 114.49 12.15C114.13 11.77 113.85 11.30 113.65 10.74C113.46 10.18 113.34 9.56 113.34 8.86C113.34 8.18 113.46 7.56 113.65 7.01C113.85 6.47 114.13 5.99 114.49 5.61C114.86 5.24 115.30 4.94 115.82 4.73C116.34 4.52 116.91 4.42 117.56 4.42C118.73 4.42 119.67 4.58 120.36 4.90C120.40 5.81 120.43 6.31 120.43 6.41C120.44 6.64 120.54 6.75 120.74 6.75L121.07 6.75L121.07 4.51C120.64 4.31 120.08 4.14 119.38 4.00C118.68 3.86 118.09 3.81 117.59 3.81C116.83 3.81 116.14 3.92 115.53 4.16C114.91 4.40 114.39 4.75 113.96 5.18C113.53 5.61 113.20 6.15 112.97 6.78C112.73 7.39 112.62 8.09 112.62 8.86C112.62 9.63 112.73 10.32 112.97 10.95C113.20 11.58 113.53 12.10 113.95 12.54C114.37 12.99 114.88 13.33 115.47 13.57C116.06 13.80 116.70 13.93 117.42 13.93C117.84 13.93 118.22 13.90 118.57 13.86C118.92 13.80 119.24 13.73 119.55 13.65C119.85 13.55 120.13 13.44 120.40 13.30C120.67 13.16 120.92 13.01 121.17 12.84L121.17 9.32ZM147.94 13.29L147.84 13.29L147.66 13.29C147.57 13.29 147.49 13.27 147.41 13.27L144.44 9.53C144.35 9.42 144.24 9.32 144.13 9.25C144.56 9.21 144.96 9.11 145.31 8.96C145.66 8.81 145.94 8.61 146.19 8.37C146.43 8.13 146.62 7.85 146.75 7.55C146.87 7.24 146.94 6.89 146.94 6.51C146.94 5.66 146.66 5.03 146.10 4.58C145.54 4.14 144.69 3.92 143.54 3.92L141.13 3.92L139.96 3.92L139.96 4.19C139.96 4.34 140.04 4.42 140.22 4.44L140.36 4.44C140.43 4.44 140.53 4.45 140.67 4.45C140.81 4.45 140.97 4.47 141.13 4.47L141.13 13.26C140.97 13.26 140.81 13.27 140.67 13.27C140.53 13.27 140.43 13.29 140.36 13.29L140.22 13.29C140.04 13.30 139.94 13.38 139.94 13.54L139.94 13.82L141.13 13.82L141.85 13.82L143.02 13.82L143.02 13.54C143.02 13.38 142.93 13.30 142.74 13.29L142.60 13.29C142.53 13.29 142.44 13.27 142.30 13.27C142.16 13.27 142.02 13.26 141.85 13.26L141.85 9.34L143.02 9.34C143.22 9.34 143.36 9.35 143.44 9.39C143.53 9.44 143.61 9.52 143.70 9.62L146.87 13.64C146.93 13.71 146.97 13.75 147.03 13.78C147.08 13.80 147.15 13.82 147.22 13.82L147.29 13.82L147.84 13.82L148.20 13.82L148.20 13.54C148.20 13.38 148.12 13.30 147.94 13.29ZM143.44 8.81L141.85 8.81L141.85 4.48L143.54 4.48C144.42 4.48 145.10 4.66 145.56 5.00C146.02 5.33 146.24 5.87 146.24 6.57C146.24 6.92 146.19 7.21 146.06 7.49C145.94 7.77 145.74 7.99 145.50 8.19C145.26 8.39 144.97 8.55 144.62 8.65C144.27 8.75 143.88 8.81 143.44 8.81ZM165.37 8.86C165.37 8.11 165.24 7.41 165.02 6.79C164.79 6.17 164.47 5.64 164.05 5.19C163.63 4.75 163.14 4.40 162.57 4.16C161.99 3.92 161.34 3.79 160.64 3.79C159.94 3.79 159.31 3.92 158.73 4.16C158.16 4.40 157.65 4.75 157.23 5.19C156.81 5.64 156.49 6.17 156.27 6.79C156.04 7.41 155.92 8.11 155.92 8.86C155.92 9.63 156.04 10.33 156.27 10.95C156.49 11.56 156.81 12.10 157.23 12.54C157.65 12.99 158.16 13.33 158.73 13.57C159.31 13.80 159.94 13.93 160.64 13.93C161.34 13.93 161.99 13.80 162.57 13.57C163.14 13.33 163.63 12.99 164.05 12.54C164.47 12.10 164.79 11.56 165.02 10.95C165.24 10.33 165.37 9.63 165.37 8.86ZM164.61 8.86C164.61 9.56 164.53 10.18 164.33 10.72C164.14 11.27 163.87 11.75 163.52 12.12C163.17 12.50 162.75 12.81 162.26 13.01C161.77 13.20 161.24 13.30 160.64 13.30C160.05 13.30 159.52 13.20 159.03 13.01C158.54 12.81 158.12 12.50 157.77 12.12C157.42 11.75 157.14 11.27 156.94 10.72C156.74 10.18 156.66 9.56 156.66 8.86C156.66 8.18 156.74 7.55 156.94 7.00C157.14 6.45 157.42 5.98 157.77 5.60C158.12 5.22 158.54 4.91 159.03 4.72C159.52 4.52 160.05 4.41 160.64 4.41C161.24 4.41 161.77 4.52 162.26 4.72C162.75 4.91 163.17 5.22 163.52 5.60C163.87 5.98 164.14 6.45 164.33 7.00C164.53 7.55 164.61 8.18 164.61 8.86ZM180.47 9.52C180.05 9.11 179.45 8.86 178.67 8.75C178.99 8.67 179.27 8.55 179.52 8.40C179.77 8.25 180.00 8.08 180.17 7.87C180.33 7.66 180.47 7.43 180.56 7.20C180.64 6.96 180.70 6.71 180.70 6.44C180.70 6.05 180.61 5.68 180.49 5.38C180.36 5.07 180.15 4.80 179.89 4.58C179.62 4.37 179.28 4.20 178.86 4.09C178.44 3.98 177.95 3.92 177.39 3.92L174.55 3.92L173.36 3.92L173.36 4.19C173.36 4.34 173.46 4.42 173.64 4.44L173.78 4.44C173.85 4.44 173.95 4.45 174.09 4.45C174.23 4.45 174.38 4.47 174.55 4.47L174.55 13.26C174.38 13.26 174.23 13.27 174.09 13.27C173.95 13.27 173.85 13.29 173.78 13.29L173.64 13.29C173.46 13.30 173.38 13.38 173.38 13.54L173.38 13.82L174.55 13.82L177.76 13.82C178.29 13.82 178.75 13.76 179.17 13.64C179.59 13.51 179.94 13.34 180.22 13.10C180.50 12.87 180.73 12.59 180.88 12.25C181.03 11.91 181.10 11.54 181.10 11.12C181.10 10.46 180.89 9.93 180.47 9.52ZM175.27 4.48L177.39 4.48C178.28 4.48 178.93 4.66 179.35 5.00C179.77 5.35 179.98 5.84 179.98 6.51C179.98 6.76 179.94 7.03 179.84 7.27C179.75 7.50 179.59 7.71 179.38 7.91C179.17 8.11 178.91 8.26 178.58 8.37C178.26 8.48 177.87 8.55 177.41 8.55L175.27 8.55ZM179.72 12.68C179.27 13.06 178.61 13.24 177.74 13.24L175.27 13.24L175.27 9.07L177.76 9.07C178.18 9.07 178.54 9.11 178.86 9.21C179.19 9.31 179.47 9.45 179.69 9.62C179.91 9.80 180.08 10.00 180.21 10.25C180.32 10.50 180.39 10.79 180.39 11.10C180.39 11.79 180.17 12.31 179.72 12.68ZM198.56 8.86C198.56 8.11 198.44 7.41 198.21 6.79C197.99 6.17 197.67 5.64 197.25 5.19C196.83 4.75 196.34 4.40 195.76 4.16C195.19 3.92 194.53 3.79 193.83 3.79C193.13 3.79 192.50 3.92 191.93 4.16C191.35 4.40 190.85 4.75 190.43 5.19C190.01 5.64 189.69 6.17 189.46 6.79C189.24 7.41 189.11 8.11 189.11 8.86C189.11 9.63 189.24 10.33 189.46 10.95C189.69 11.56 190.01 12.10 190.43 12.54C190.85 12.99 191.35 13.33 191.93 13.57C192.50 13.80 193.13 13.93 193.83 13.93C194.53 13.93 195.19 13.80 195.76 13.57C196.34 13.33 196.83 12.99 197.25 12.54C197.67 12.10 197.99 11.56 198.21 10.95C198.44 10.33 198.56 9.63 198.56 8.86ZM197.81 8.86C197.81 9.56 197.72 10.18 197.53 10.72C197.33 11.27 197.06 11.75 196.71 12.12C196.36 12.50 195.94 12.81 195.45 13.01C194.96 13.20 194.43 13.30 193.83 13.30C193.24 13.30 192.71 13.20 192.22 13.01C191.73 12.81 191.31 12.50 190.96 12.12C190.61 11.75 190.33 11.27 190.13 10.72C189.94 10.18 189.85 9.56 189.85 8.86C189.85 8.18 189.94 7.55 190.13 7.00C190.33 6.45 190.61 5.98 190.96 5.60C191.31 5.22 191.73 4.91 192.22 4.72C192.71 4.52 193.24 4.41 193.83 4.41C194.43 4.41 194.96 4.52 195.45 4.72C195.94 4.91 196.36 5.22 196.71 5.60C197.06 5.98 197.33 6.45 197.53 7.00C197.72 7.55 197.81 8.18 197.81 8.86ZM214.27 3.92L214.07 3.92L206.78 3.92L206.57 3.92L206.47 3.92L206.47 5.96L206.82 5.96C207.02 5.96 207.10 5.85 207.12 5.63C207.12 5.53 207.14 5.17 207.17 4.52L210.07 4.52L210.07 13.26C209.90 13.26 209.76 13.27 209.62 13.27C209.48 13.27 209.37 13.29 209.30 13.29L209.17 13.29C208.99 13.30 208.89 13.38 208.89 13.54L208.89 13.82L210.07 13.82L210.78 13.82L211.97 13.82L211.97 13.54C211.97 13.38 211.88 13.30 211.69 13.29L211.55 13.29C211.48 13.29 211.39 13.27 211.25 13.27C211.11 13.27 210.95 13.26 210.78 13.26L210.78 4.52L213.67 4.52C213.71 5.24 213.72 5.60 213.72 5.63C213.74 5.85 213.84 5.96 214.03 5.96L214.37 5.96L214.37 3.92ZM225.29 4.44C225.47 4.42 225.55 4.34 225.55 4.19L225.55 3.91L224.38 3.91L223.66 3.91L222.47 3.91L222.47 4.19C222.47 4.34 222.57 4.42 222.75 4.44L222.89 4.44C222.96 4.44 223.06 4.45 223.20 4.45C223.34 4.45 223.50 4.47 223.66 4.47L223.66 13.26C223.50 13.26 223.34 13.27 223.20 13.27C223.06 13.27 222.96 13.29 222.89 13.29L222.75 13.29C222.57 13.30 222.47 13.38 222.47 13.54L222.47 13.82L223.66 13.82L224.38 13.82L225.55 13.82L225.55 13.54C225.55 13.38 225.47 13.30 225.29 13.29L225.15 13.29C225.08 13.29 224.98 13.27 224.84 13.27C224.70 13.27 224.55 13.26 224.38 13.26L224.38 4.47C224.55 4.47 224.70 4.45 224.84 4.45C224.98 4.45 225.08 4.44 225.15 4.44ZM241.63 12.21C241.60 12.18 241.56 12.15 241.51 12.15C241.49 12.15 241.47 12.15 241.44 12.17C241.43 12.18 241.40 12.21 241.37 12.22C241.18 12.40 240.97 12.56 240.77 12.70C240.58 12.84 240.37 12.94 240.13 13.03C239.89 13.13 239.64 13.20 239.36 13.24C239.08 13.29 238.77 13.31 238.42 13.31C237.86 13.31 237.31 13.22 236.84 13.01C236.35 12.81 235.94 12.52 235.59 12.14C235.24 11.76 234.95 11.28 234.75 10.74C234.56 10.19 234.46 9.56 234.46 8.86C234.46 8.18 234.56 7.56 234.75 7.01C234.96 6.47 235.24 6.01 235.61 5.61C235.97 5.24 236.40 4.94 236.91 4.73C237.41 4.52 237.96 4.42 238.56 4.42C239.46 4.42 240.28 4.56 241.01 4.89C241.05 5.78 241.09 6.30 241.09 6.41C241.11 6.64 241.19 6.75 241.39 6.75L241.72 6.75L241.72 4.51C240.55 4.03 239.48 3.81 238.56 3.81C237.85 3.81 237.20 3.92 236.60 4.17C236.01 4.42 235.48 4.76 235.06 5.21C234.63 5.66 234.30 6.19 234.07 6.80C233.83 7.42 233.72 8.11 233.72 8.86C233.72 9.63 233.84 10.32 234.07 10.95C234.29 11.58 234.61 12.10 235.02 12.54C235.42 12.99 235.91 13.33 236.49 13.57C237.06 13.80 237.68 13.93 238.36 13.93C238.77 13.93 239.15 13.90 239.50 13.83C239.83 13.76 240.16 13.66 240.45 13.54C240.73 13.41 241.00 13.26 241.23 13.09C241.47 12.91 241.70 12.73 241.91 12.50ZM255.64 9.91C255.50 9.65 255.30 9.39 255.07 9.21C254.83 9.03 254.58 8.88 254.28 8.75C253.99 8.62 253.67 8.51 253.36 8.41C253.05 8.32 252.74 8.20 252.45 8.11C252.15 7.99 251.89 7.87 251.65 7.71C251.41 7.56 251.23 7.38 251.09 7.15C250.95 6.93 250.87 6.65 250.87 6.31C250.87 6.06 250.92 5.82 251.02 5.59C251.12 5.35 251.26 5.15 251.44 4.97C251.62 4.79 251.85 4.65 252.13 4.55C252.41 4.45 252.71 4.40 253.08 4.40C253.75 4.40 254.37 4.51 254.93 4.75C254.97 5.54 255.00 5.99 255.00 6.06C255.01 6.29 255.09 6.41 255.29 6.41L255.63 6.41L255.63 4.38C254.74 4.00 253.90 3.81 253.08 3.81C252.62 3.81 252.21 3.88 251.85 4.02C251.48 4.16 251.19 4.34 250.95 4.58C250.71 4.82 250.52 5.08 250.39 5.39C250.26 5.70 250.21 6.02 250.21 6.36C250.21 6.78 250.28 7.14 250.42 7.42C250.56 7.70 250.75 7.92 250.99 8.12C251.23 8.32 251.48 8.46 251.78 8.58C252.07 8.71 252.39 8.82 252.70 8.92C253.01 9.02 253.30 9.11 253.61 9.21C253.90 9.31 254.17 9.45 254.41 9.60C254.65 9.76 254.83 9.94 254.97 10.16C255.11 10.39 255.18 10.68 255.18 11.03C255.18 11.35 255.12 11.66 255.01 11.94C254.90 12.22 254.74 12.46 254.53 12.67C254.32 12.88 254.06 13.05 253.75 13.16C253.44 13.29 253.09 13.33 252.70 13.33C251.92 13.33 251.26 13.20 250.73 12.95C250.71 12.75 250.71 12.54 250.70 12.32C250.68 12.10 250.68 11.91 250.67 11.76C250.66 11.61 250.66 11.52 250.66 11.51C250.64 11.28 250.54 11.17 250.35 11.17L250.01 11.17L250.01 13.02L250.01 13.20L250.01 13.38C250.87 13.75 251.75 13.93 252.67 13.93C253.18 13.93 253.62 13.85 254.02 13.69C254.41 13.54 254.74 13.31 255.01 13.05C255.28 12.78 255.50 12.46 255.64 12.10C255.78 11.73 255.85 11.34 255.85 10.92C255.85 10.51 255.78 10.18 255.64 9.91ZM283.49 6.80C283.26 6.19 282.94 5.68 282.52 5.25C282.10 4.82 281.61 4.48 281.04 4.26C280.46 4.03 279.80 3.92 279.10 3.92L275.67 3.92L274.48 3.92L274.48 4.19C274.48 4.34 274.58 4.42 274.76 4.44L274.90 4.44C274.97 4.44 275.07 4.45 275.21 4.45C275.35 4.45 275.51 4.47 275.67 4.47L275.67 13.26C275.51 13.26 275.35 13.27 275.21 13.27C275.07 13.27 274.97 13.29 274.90 13.29L274.76 13.29C274.58 13.30 274.48 13.38 274.48 13.54L274.48 13.82L275.67 13.82L279.10 13.82C279.80 13.82 280.46 13.71 281.04 13.48C281.61 13.26 282.10 12.92 282.52 12.49C282.94 12.05 283.26 11.54 283.49 10.92C283.71 10.30 283.84 9.63 283.84 8.86C283.84 8.11 283.71 7.42 283.49 6.80ZM282.80 10.72C282.60 11.27 282.35 11.72 282.00 12.10C281.65 12.47 281.23 12.75 280.74 12.95C280.25 13.15 279.71 13.24 279.10 13.24L276.39 13.24L276.39 4.49L279.10 4.49C279.71 4.49 280.25 4.59 280.74 4.79C281.23 4.98 281.65 5.26 282.00 5.64C282.35 6.02 282.60 6.47 282.80 7.01C283.00 7.56 283.09 8.18 283.09 8.86C283.09 9.56 283.00 10.18 282.80 10.72ZM293.31 3.92L292.12 3.92L292.12 4.19C292.12 4.34 292.22 4.42 292.40 4.44L292.54 4.44C292.61 4.44 292.71 4.45 292.85 4.45C292.99 4.45 293.15 4.47 293.31 4.47L293.31 13.26C293.15 13.26 292.99 13.27 292.85 13.27C292.71 13.27 292.61 13.29 292.54 13.29L292.40 13.29C292.22 13.30 292.14 13.38 292.14 13.54L292.14 13.82L293.31 13.82L299.25 13.82L299.25 13.22L299.25 11.76L298.90 11.76C298.70 11.76 298.62 11.89 298.61 12.11C298.61 12.14 298.59 12.19 298.59 12.29C298.59 12.39 298.59 12.53 298.58 12.74C298.56 12.95 298.55 13.09 298.55 13.22L294.03 13.22L294.03 9.09L297.98 9.09L297.98 8.51L294.03 8.51L294.03 4.51L298.55 4.51C298.58 5.12 298.61 5.50 298.61 5.63C298.62 5.85 298.70 5.96 298.90 5.96L299.25 5.96L299.25 4.51L299.25 3.92ZM316.74 3.92L316.18 3.92L316.15 3.92L314.68 3.92L314.68 4.19C314.68 4.34 314.76 4.42 314.94 4.44L315.07 4.44C315.13 4.44 315.21 4.45 315.34 4.45C315.46 4.45 315.60 4.47 315.76 4.47L312.55 12.32C312.47 12.53 312.40 12.75 312.34 13.01C312.28 12.77 312.21 12.53 312.13 12.32L308.90 4.47C309.05 4.47 309.20 4.45 309.33 4.45C309.46 4.45 309.54 4.44 309.60 4.44L309.71 4.44C309.89 4.42 309.99 4.34 309.99 4.19L309.99 3.92L308.49 3.92L307.93 3.92L307.33 3.92L307.33 4.19C307.33 4.34 307.43 4.42 307.61 4.44L307.71 4.44C307.75 4.44 307.82 4.45 307.89 4.45C307.96 4.45 308.06 4.47 308.15 4.47L312.02 13.82L312.65 13.82L316.51 4.47C316.61 4.47 316.71 4.45 316.78 4.45C316.85 4.45 316.92 4.44 316.96 4.44L317.04 4.44C317.23 4.42 317.32 4.34 317.32 4.19L317.32 3.92ZM326.56 3.92L325.37 3.92L325.37 4.19C325.37 4.34 325.47 4.42 325.65 4.44L325.79 4.44C325.86 4.44 325.96 4.45 326.10 4.45C326.24 4.45 326.40 4.47 326.56 4.47L326.56 13.26C326.40 13.26 326.24 13.27 326.10 13.27C325.96 13.27 325.86 13.29 325.79 13.29L325.65 13.29C325.47 13.30 325.39 13.38 325.39 13.54L325.39 13.82L326.56 13.82L332.50 13.82L332.50 13.22L332.50 11.76L332.15 11.76C331.95 11.76 331.87 11.89 331.86 12.11C331.86 12.14 331.84 12.19 331.84 12.29C331.84 12.39 331.84 12.53 331.83 12.74C331.81 12.95 331.80 13.09 331.80 13.22L327.28 13.22L327.28 9.09L331.23 9.09L331.23 8.51L327.28 8.51L327.28 4.51L331.80 4.51C331.83 5.12 331.86 5.50 331.86 5.63C331.87 5.85 331.95 5.96 332.15 5.96L332.50 5.96L332.50 4.51L332.50 3.92ZM347.45 11.97C347.26 11.97 347.17 12.08 347.16 12.31C347.16 12.32 347.16 12.38 347.14 12.43C347.13 12.49 347.13 12.59 347.12 12.71C347.10 12.84 347.09 13.01 347.07 13.20L342.99 13.20L342.99 4.47C343.15 4.47 343.29 4.45 343.43 4.45C343.57 4.45 343.69 4.44 343.76 4.44L343.88 4.44C344.06 4.42 344.16 4.34 344.16 4.19L344.16 3.92L342.99 3.92L342.27 3.92L341.08 3.92L341.08 4.19C341.08 4.34 341.18 4.42 341.36 4.44L341.50 4.44C341.57 4.44 341.67 4.45 341.81 4.45C341.95 4.45 342.10 4.47 342.27 4.47L342.27 13.26C342.10 13.26 341.95 13.27 341.81 13.27C341.67 13.27 341.57 13.29 341.50 13.29L341.36 13.29C341.18 13.30 341.08 13.38 341.08 13.54L341.08 13.82L342.27 13.82L347.55 13.82L347.68 13.82L347.80 13.82L347.80 13.55L347.80 12.99L347.80 11.97L347.52 11.97ZM364.94 8.86C364.94 8.11 364.81 7.41 364.59 6.79C364.36 6.17 364.04 5.64 363.62 5.19C363.20 4.75 362.71 4.40 362.14 4.16C361.56 3.92 360.91 3.79 360.21 3.79C359.51 3.79 358.88 3.92 358.30 4.16C357.73 4.40 357.22 4.75 356.80 5.19C356.38 5.64 356.06 6.17 355.84 6.79C355.61 7.41 355.49 8.11 355.49 8.86C355.49 9.63 355.61 10.33 355.84 10.95C356.06 11.56 356.38 12.10 356.80 12.54C357.22 12.99 357.73 13.33 358.30 13.57C358.88 13.80 359.51 13.93 360.21 13.93C360.91 13.93 361.56 13.80 362.14 13.57C362.71 13.33 363.20 12.99 363.62 12.54C364.04 12.10 364.36 11.56 364.59 10.95C364.81 10.33 364.94 9.63 364.94 8.86ZM364.18 8.86C364.18 9.56 364.10 10.18 363.90 10.72C363.71 11.27 363.44 11.75 363.09 12.12C362.74 12.50 362.32 12.81 361.83 13.01C361.34 13.20 360.81 13.30 360.21 13.30C359.62 13.30 359.09 13.20 358.60 13.01C358.11 12.81 357.69 12.50 357.34 12.12C356.99 11.75 356.71 11.27 356.51 10.72C356.31 10.18 356.23 9.56 356.23 8.86C356.23 8.18 356.31 7.55 356.51 7.00C356.71 6.45 356.99 5.98 357.34 5.60C357.69 5.22 358.11 4.91 358.60 4.72C359.09 4.52 359.62 4.41 360.21 4.41C360.81 4.41 361.34 4.52 361.83 4.72C362.32 4.91 362.74 5.22 363.09 5.60C363.44 5.98 363.71 6.45 363.90 7.00C364.10 7.55 364.18 8.18 364.18 8.86ZM379.44 4.68C378.85 4.17 377.97 3.92 376.81 3.92L374.40 3.92L373.21 3.92L373.21 4.19C373.21 4.34 373.31 4.42 373.49 4.44L373.63 4.44C373.70 4.44 373.80 4.45 373.94 4.45C374.08 4.45 374.23 4.47 374.40 4.47L374.40 13.26C374.23 13.26 374.08 13.27 373.94 13.27C373.80 13.27 373.70 13.29 373.63 13.29L373.49 13.29C373.31 13.30 373.21 13.38 373.21 13.54L373.21 13.82L374.40 13.82L375.12 13.82L376.29 13.82L376.29 13.54C376.29 13.38 376.19 13.30 376.01 13.29L375.89 13.29C375.82 13.29 375.70 13.27 375.56 13.27C375.42 13.27 375.28 13.26 375.12 13.26L375.12 9.83L376.81 9.83C377.36 9.83 377.85 9.74 378.28 9.60C378.71 9.45 379.08 9.25 379.39 8.99C379.69 8.72 379.93 8.41 380.09 8.05C380.25 7.69 380.32 7.29 380.32 6.86C380.32 5.92 380.03 5.18 379.44 4.68ZM379.41 7.81C379.29 8.11 379.11 8.36 378.87 8.57C378.63 8.78 378.34 8.95 377.99 9.07C377.64 9.20 377.24 9.25 376.81 9.25L375.12 9.25L375.12 4.48L376.81 4.48C377.73 4.48 378.43 4.69 378.91 5.10C379.37 5.50 379.61 6.09 379.61 6.85C379.61 7.20 379.54 7.52 379.41 7.81ZM389.70 3.92L388.51 3.92L388.51 4.19C388.51 4.34 388.61 4.42 388.79 4.44L388.93 4.44C389.00 4.44 389.10 4.45 389.24 4.45C389.38 4.45 389.54 4.47 389.70 4.47L389.70 13.26C389.54 13.26 389.38 13.27 389.24 13.27C389.10 13.27 389.00 13.29 388.93 13.29L388.79 13.29C388.61 13.30 388.53 13.38 388.53 13.54L388.53 13.82L389.70 13.82L395.64 13.82L395.64 13.22L395.64 11.76L395.29 11.76C395.09 11.76 395.01 11.89 395.00 12.11C395.00 12.14 394.98 12.19 394.98 12.29C394.98 12.39 394.98 12.53 394.97 12.74C394.95 12.95 394.94 13.09 394.94 13.22L390.42 13.22L390.42 9.09L394.37 9.09L394.37 8.51L390.42 8.51L390.42 4.51L394.94 4.51C394.97 5.12 395.00 5.50 395.00 5.63C395.01 5.85 395.09 5.96 395.29 5.96L395.64 5.96L395.64 4.51L395.64 3.92ZM412.22 13.29L412.12 13.29L411.94 13.29C411.85 13.29 411.77 13.27 411.68 13.27L408.72 9.53C408.63 9.42 408.52 9.32 408.41 9.25C408.84 9.21 409.23 9.11 409.58 8.96C409.93 8.81 410.21 8.61 410.47 8.37C410.70 8.13 410.90 7.85 411.03 7.55C411.15 7.24 411.22 6.89 411.22 6.51C411.22 5.66 410.94 5.03 410.38 4.58C409.82 4.14 408.97 3.92 407.82 3.92L405.41 3.92L404.24 3.92L404.24 4.19C404.24 4.34 404.32 4.42 404.50 4.44L404.64 4.44C404.71 4.44 404.81 4.45 404.95 4.45C405.09 4.45 405.24 4.47 405.41 4.47L405.41 13.26C405.24 13.26 405.09 13.27 404.95 13.27C404.81 13.27 404.71 13.29 404.64 13.29L404.50 13.29C404.32 13.30 404.22 13.38 404.22 13.54L404.22 13.82L405.41 13.82L406.13 13.82L407.30 13.82L407.30 13.54C407.30 13.38 407.20 13.30 407.02 13.29L406.88 13.29C406.81 13.29 406.71 13.27 406.57 13.27C406.43 13.27 406.29 13.26 406.13 13.26L406.13 9.34L407.30 9.34C407.50 9.34 407.64 9.35 407.72 9.39C407.81 9.44 407.89 9.52 407.97 9.62L411.15 13.64C411.21 13.71 411.25 13.75 411.31 13.78C411.36 13.80 411.43 13.82 411.50 13.82L411.57 13.82L412.12 13.82L412.48 13.82L412.48 13.54C412.48 13.38 412.40 13.30 412.22 13.29ZM407.72 8.81L406.13 8.81L406.13 4.48L407.82 4.48C408.70 4.48 409.37 4.66 409.84 5.00C410.30 5.33 410.52 5.87 410.52 6.57C410.52 6.92 410.47 7.21 410.34 7.49C410.21 7.77 410.02 7.99 409.78 8.19C409.54 8.39 409.25 8.55 408.90 8.65C408.55 8.75 408.16 8.81 407.72 8.81ZM426.41 9.91C426.27 9.65 426.08 9.39 425.84 9.21C425.60 9.03 425.35 8.88 425.05 8.75C424.76 8.62 424.44 8.51 424.13 8.41C423.82 8.32 423.51 8.20 423.22 8.11C422.93 7.99 422.66 7.87 422.42 7.71C422.18 7.56 422.00 7.38 421.86 7.15C421.72 6.93 421.64 6.65 421.64 6.31C421.64 6.06 421.69 5.82 421.79 5.59C421.89 5.35 422.03 5.15 422.21 4.97C422.39 4.79 422.62 4.65 422.90 4.55C423.18 4.45 423.49 4.40 423.85 4.40C424.52 4.40 425.14 4.51 425.70 4.75C425.74 5.54 425.77 5.99 425.77 6.06C425.78 6.29 425.87 6.41 426.06 6.41L426.40 6.41L426.40 4.38C425.52 4.00 424.68 3.81 423.85 3.81C423.39 3.81 422.98 3.88 422.62 4.02C422.25 4.16 421.96 4.34 421.72 4.58C421.48 4.82 421.29 5.08 421.16 5.39C421.04 5.70 420.98 6.02 420.98 6.36C420.98 6.78 421.05 7.14 421.19 7.42C421.33 7.70 421.53 7.92 421.76 8.12C422.00 8.32 422.25 8.46 422.55 8.58C422.84 8.71 423.16 8.82 423.47 8.92C423.78 9.02 424.07 9.11 424.38 9.21C424.68 9.31 424.94 9.45 425.18 9.60C425.42 9.76 425.60 9.94 425.74 10.16C425.88 10.39 425.95 10.68 425.95 11.03C425.95 11.35 425.89 11.66 425.78 11.94C425.67 12.22 425.52 12.46 425.31 12.67C425.10 12.88 424.83 13.05 424.52 13.16C424.21 13.29 423.86 13.33 423.47 13.33C422.69 13.33 422.03 13.20 421.50 12.95C421.48 12.75 421.48 12.54 421.47 12.32C421.46 12.10 421.46 11.91 421.44 11.76C421.43 11.61 421.43 11.52 421.43 11.51C421.41 11.28 421.32 11.17 421.12 11.17L420.78 11.17L420.78 13.02L420.78 13.20L420.78 13.38C421.64 13.75 422.52 13.93 423.44 13.93C423.95 13.93 424.40 13.85 424.79 13.69C425.18 13.54 425.52 13.31 425.78 13.05C426.05 12.78 426.27 12.46 426.41 12.10C426.55 11.73 426.62 11.34 426.62 10.92C426.62 10.51 426.55 10.18 426.41 9.91ZM454.52 8.86C454.52 8.11 454.40 7.41 454.17 6.79C453.95 6.17 453.63 5.64 453.21 5.19C452.79 4.75 452.30 4.40 451.72 4.16C451.15 3.92 450.49 3.79 449.79 3.79C449.09 3.79 448.46 3.92 447.89 4.16C447.31 4.40 446.81 4.75 446.39 5.19C445.97 5.64 445.65 6.17 445.42 6.79C445.20 7.41 445.07 8.11 445.07 8.86C445.07 9.63 445.20 10.33 445.42 10.95C445.65 11.56 445.97 12.10 446.39 12.54C446.81 12.99 447.31 13.33 447.89 13.57C448.46 13.80 449.09 13.93 449.79 13.93C450.49 13.93 451.15 13.80 451.72 13.57C452.30 13.33 452.79 12.99 453.21 12.54C453.63 12.10 453.95 11.56 454.17 10.95C454.40 10.33 454.52 9.63 454.52 8.86ZM453.77 8.86C453.77 9.56 453.68 10.18 453.49 10.72C453.29 11.27 453.03 11.75 452.68 12.12C452.33 12.50 451.91 12.81 451.42 13.01C450.93 13.20 450.39 13.30 449.79 13.30C449.20 13.30 448.67 13.20 448.18 13.01C447.69 12.81 447.27 12.50 446.92 12.12C446.57 11.75 446.29 11.27 446.10 10.72C445.90 10.18 445.82 9.56 445.82 8.86C445.82 8.18 445.90 7.55 446.10 7.00C446.29 6.45 446.57 5.98 446.92 5.60C447.27 5.22 447.69 4.91 448.18 4.72C448.67 4.52 449.20 4.41 449.79 4.41C450.39 4.41 450.93 4.52 451.42 4.72C451.91 4.91 452.33 5.22 452.68 5.60C453.03 5.98 453.29 6.45 453.49 7.00C453.68 7.55 453.77 8.18 453.77 8.86ZM471.35 3.92L470.72 3.92L469.50 3.92L469.50 4.19C469.50 4.34 469.60 4.42 469.78 4.44L469.92 4.44C469.99 4.44 470.11 4.45 470.25 4.45C470.39 4.45 470.55 4.47 470.72 4.47L470.72 12.22C470.72 12.35 470.72 12.49 470.74 12.63L464.32 4.05C464.28 3.99 464.25 3.95 464.21 3.93C464.17 3.92 464.13 3.91 464.06 3.91L463.71 3.91L462.52 3.91L462.52 4.19C462.52 4.34 462.62 4.42 462.80 4.44L462.94 4.44C463.01 4.44 463.11 4.45 463.25 4.45C463.39 4.45 463.54 4.47 463.71 4.47L463.71 13.26C463.54 13.26 463.39 13.27 463.25 13.27C463.11 13.27 463.01 13.29 462.94 13.29L462.80 13.29C462.62 13.30 462.52 13.38 462.52 13.54L462.52 13.82L463.71 13.82L464.32 13.82L465.54 13.82L465.54 13.54C465.54 13.38 465.44 13.30 465.26 13.29L465.12 13.29C465.05 13.29 464.93 13.27 464.79 13.27C464.65 13.27 464.49 13.26 464.32 13.26L464.32 5.49C464.32 5.36 464.32 5.22 464.31 5.08L470.75 13.68C470.82 13.78 470.89 13.82 471.00 13.82L471.35 13.82L471.35 4.47C471.52 4.47 471.66 4.45 471.80 4.45C471.94 4.45 472.05 4.44 472.12 4.44L472.25 4.44C472.43 4.42 472.53 4.34 472.53 4.19L472.53 3.92ZM500.23 13.22L499.77 13.17L495.99 3.91L495.28 3.91L491.48 13.17L491.04 13.22C490.85 13.23 490.77 13.33 490.77 13.50L490.77 13.82L491.22 13.82L491.51 13.82L491.76 13.82L491.86 13.82L493.18 13.82L493.18 13.50C493.18 13.31 493.07 13.23 492.86 13.22C492.84 13.22 492.81 13.20 492.77 13.20C492.73 13.20 492.67 13.19 492.58 13.19C492.48 13.19 492.35 13.19 492.21 13.17L493.19 10.75L493.26 10.57L497.99 10.57L498.06 10.75L499.04 13.17C498.90 13.19 498.79 13.19 498.69 13.19C498.60 13.19 498.53 13.20 498.48 13.20C498.44 13.20 498.41 13.22 498.40 13.22C498.19 13.23 498.08 13.31 498.08 13.50L498.08 13.82L499.39 13.82L499.49 13.82L499.76 13.82L500.04 13.82L500.50 13.82L500.50 13.50C500.50 13.33 500.42 13.23 500.23 13.22ZM495.43 5.22C495.46 5.14 495.50 5.04 495.53 4.94C495.56 4.84 495.60 4.75 495.63 4.63C495.66 4.75 495.70 4.84 495.73 4.94C495.75 5.04 495.80 5.12 495.82 5.21L497.78 10.04L493.49 10.04ZM518.00 8.86C518.00 8.11 517.87 7.41 517.65 6.79C517.43 6.17 517.10 5.64 516.68 5.19C516.26 4.75 515.77 4.40 515.20 4.16C514.63 3.92 513.97 3.79 513.27 3.79C512.57 3.79 511.94 3.92 511.36 4.16C510.79 4.40 510.29 4.75 509.87 5.19C509.45 5.64 509.12 6.17 508.90 6.79C508.68 7.41 508.55 8.11 508.55 8.86C508.55 9.63 508.68 10.33 508.90 10.95C509.12 11.56 509.45 12.10 509.87 12.54C510.29 12.99 510.79 13.33 511.36 13.57C511.94 13.80 512.57 13.93 513.27 13.93C513.97 13.93 514.63 13.80 515.20 13.57C515.77 13.33 516.26 12.99 516.68 12.54C517.10 12.10 517.43 11.56 517.65 10.95C517.87 10.33 518.00 9.63 518.00 8.86ZM517.24 8.86C517.24 9.56 517.16 10.18 516.96 10.72C516.77 11.27 516.50 11.75 516.15 12.12C515.80 12.50 515.38 12.81 514.89 13.01C514.40 13.20 513.87 13.30 513.27 13.30C512.68 13.30 512.15 13.20 511.66 13.01C511.17 12.81 510.75 12.50 510.40 12.12C510.05 11.75 509.77 11.27 509.57 10.72C509.38 10.18 509.29 9.56 509.29 8.86C509.29 8.18 509.38 7.55 509.57 7.00C509.77 6.45 510.05 5.98 510.40 5.60C510.75 5.22 511.17 4.91 511.66 4.72C512.15 4.52 512.68 4.41 513.27 4.41C513.87 4.41 514.40 4.52 514.89 4.72C515.38 4.91 515.80 5.22 516.15 5.60C516.50 5.98 516.77 6.45 516.96 7.00C517.16 7.55 517.24 8.18 517.24 8.86ZM545.94 13.22L545.48 13.17L541.70 3.91L540.99 3.91L537.19 13.17L536.75 13.22C536.56 13.23 536.48 13.33 536.48 13.50L536.48 13.82L536.93 13.82L537.22 13.82L537.47 13.82L537.57 13.82L538.89 13.82L538.89 13.50C538.89 13.31 538.78 13.23 538.57 13.22C538.55 13.22 538.52 13.20 538.48 13.20C538.44 13.20 538.38 13.19 538.29 13.19C538.19 13.19 538.06 13.19 537.92 13.17L538.90 10.75L538.97 10.57L543.70 10.57L543.77 10.75L544.75 13.17C544.61 13.19 544.50 13.19 544.40 13.19C544.31 13.19 544.24 13.20 544.19 13.20C544.15 13.20 544.12 13.22 544.11 13.22C543.90 13.23 543.79 13.31 543.79 13.50L543.79 13.82L545.10 13.82L545.20 13.82L545.47 13.82L545.75 13.82L546.21 13.82L546.21 13.50C546.21 13.33 546.13 13.23 545.94 13.22ZM541.14 5.22C541.17 5.14 541.21 5.04 541.24 4.94C541.27 4.84 541.31 4.75 541.34 4.63C541.37 4.75 541.41 4.84 541.44 4.94C541.46 5.04 541.51 5.12 541.53 5.21L543.49 10.04L539.20 10.04ZM562.17 12.21C562.14 12.18 562.10 12.15 562.06 12.15C562.03 12.15 562.02 12.15 561.99 12.17C561.97 12.18 561.95 12.21 561.92 12.22C561.72 12.40 561.51 12.56 561.32 12.70C561.12 12.84 560.91 12.94 560.67 13.03C560.43 13.13 560.18 13.20 559.90 13.24C559.62 13.29 559.31 13.31 558.96 13.31C558.40 13.31 557.86 13.22 557.38 13.01C556.89 12.81 556.49 12.52 556.14 12.14C555.79 11.76 555.49 11.28 555.30 10.74C555.10 10.19 555.00 9.56 555.00 8.86C555.00 8.18 555.10 7.56 555.30 7.01C555.51 6.47 555.79 6.01 556.15 5.61C556.51 5.24 556.95 4.94 557.45 4.73C557.96 4.52 558.50 4.42 559.10 4.42C560.00 4.42 560.83 4.56 561.55 4.89C561.60 5.78 561.64 6.30 561.64 6.41C561.65 6.64 561.74 6.75 561.93 6.75L562.27 6.75L562.27 4.51C561.09 4.03 560.03 3.81 559.10 3.81C558.39 3.81 557.75 3.92 557.14 4.17C556.56 4.42 556.02 4.76 555.60 5.21C555.17 5.66 554.85 6.19 554.61 6.80C554.37 7.42 554.26 8.11 554.26 8.86C554.26 9.63 554.39 10.32 554.61 10.95C554.83 11.58 555.16 12.10 555.56 12.54C555.97 12.99 556.46 13.33 557.03 13.57C557.61 13.80 558.22 13.93 558.91 13.93C559.31 13.93 559.69 13.90 560.04 13.83C560.38 13.76 560.70 13.66 560.99 13.54C561.27 13.41 561.54 13.26 561.78 13.09C562.02 12.91 562.24 12.73 562.45 12.50ZM578.19 12.21C578.16 12.18 578.12 12.15 578.07 12.15C578.05 12.15 578.03 12.15 578.00 12.17C577.99 12.18 577.96 12.21 577.93 12.22C577.74 12.40 577.53 12.56 577.33 12.70C577.14 12.84 576.93 12.94 576.69 13.03C576.45 13.13 576.20 13.20 575.92 13.24C575.64 13.29 575.33 13.31 574.98 13.31C574.42 13.31 573.87 13.22 573.40 13.01C572.91 12.81 572.50 12.52 572.15 12.14C571.80 11.76 571.51 11.28 571.31 10.74C571.12 10.19 571.02 9.56 571.02 8.86C571.02 8.18 571.12 7.56 571.31 7.01C571.52 6.47 571.80 6.01 572.17 5.61C572.53 5.24 572.96 4.94 573.47 4.73C573.97 4.52 574.52 4.42 575.12 4.42C576.02 4.42 576.84 4.56 577.57 4.89C577.61 5.78 577.65 6.30 577.65 6.41C577.67 6.64 577.75 6.75 577.95 6.75L578.28 6.75L578.28 4.51C577.11 4.03 576.04 3.81 575.12 3.81C574.41 3.81 573.76 3.92 573.16 4.17C572.57 4.42 572.04 4.76 571.62 5.21C571.19 5.66 570.86 6.19 570.63 6.80C570.39 7.42 570.28 8.11 570.28 8.86C570.28 9.63 570.40 10.32 570.63 10.95C570.85 11.58 571.17 12.10 571.58 12.54C571.98 12.99 572.47 13.33 573.05 13.57C573.62 13.80 574.24 13.93 574.92 13.93C575.33 13.93 575.71 13.90 576.06 13.83C576.39 13.76 576.72 13.66 577.01 13.54C577.29 13.41 577.56 13.26 577.79 13.09C578.03 12.91 578.26 12.73 578.47 12.50ZM587.66 3.92L586.47 3.92L586.47 4.19C586.47 4.34 586.57 4.42 586.75 4.44L586.89 4.44C586.96 4.44 587.06 4.45 587.20 4.45C587.34 4.45 587.50 4.47 587.66 4.47L587.66 13.26C587.50 13.26 587.34 13.27 587.20 13.27C587.06 13.27 586.96 13.29 586.89 13.29L586.75 13.29C586.57 13.30 586.49 13.38 586.49 13.54L586.49 13.82L587.66 13.82L593.60 13.82L593.60 13.22L593.60 11.76L593.25 11.76C593.05 11.76 592.97 11.89 592.96 12.11C592.96 12.14 592.94 12.19 592.94 12.29C592.94 12.39 592.94 12.53 592.93 12.74C592.91 12.95 592.90 13.09 592.90 13.22L588.38 13.22L588.38 9.09L592.33 9.09L592.33 8.51L588.38 8.51L588.38 4.51L592.90 4.51C592.93 5.12 592.96 5.50 592.96 5.63C592.97 5.85 593.05 5.96 593.25 5.96L593.60 5.96L593.60 4.51L593.60 3.92ZM607.91 9.91C607.77 9.65 607.57 9.39 607.33 9.21C607.10 9.03 606.84 8.88 606.55 8.75C606.26 8.62 605.93 8.51 605.63 8.41C605.32 8.32 605.01 8.20 604.72 8.11C604.42 7.99 604.16 7.87 603.92 7.71C603.68 7.56 603.50 7.38 603.36 7.15C603.22 6.93 603.13 6.65 603.13 6.31C603.13 6.06 603.19 5.82 603.29 5.59C603.39 5.35 603.53 5.15 603.71 4.97C603.89 4.79 604.11 4.65 604.39 4.55C604.67 4.45 604.98 4.40 605.35 4.40C606.02 4.40 606.63 4.51 607.19 4.75C607.24 5.54 607.26 5.99 607.26 6.06C607.28 6.29 607.36 6.41 607.56 6.41L607.89 6.41L607.89 4.38C607.01 4.00 606.17 3.81 605.35 3.81C604.88 3.81 604.48 3.88 604.11 4.02C603.75 4.16 603.46 4.34 603.22 4.58C602.98 4.82 602.78 5.08 602.66 5.39C602.53 5.70 602.48 6.02 602.48 6.36C602.48 6.78 602.55 7.14 602.69 7.42C602.83 7.70 603.02 7.92 603.26 8.12C603.50 8.32 603.75 8.46 604.04 8.58C604.34 8.71 604.66 8.82 604.97 8.92C605.28 9.02 605.57 9.11 605.88 9.21C606.17 9.31 606.44 9.45 606.68 9.60C606.91 9.76 607.10 9.94 607.24 10.16C607.38 10.39 607.45 10.68 607.45 11.03C607.45 11.35 607.39 11.66 607.28 11.94C607.17 12.22 607.01 12.46 606.80 12.67C606.59 12.88 606.33 13.05 606.02 13.16C605.71 13.29 605.36 13.33 604.97 13.33C604.18 13.33 603.53 13.20 602.99 12.95C602.98 12.75 602.98 12.54 602.97 12.32C602.95 12.10 602.95 11.91 602.94 11.76C602.92 11.61 602.92 11.52 602.92 11.51C602.91 11.28 602.81 11.17 602.62 11.17L602.28 11.17L602.28 13.02L602.28 13.20L602.28 13.38C603.13 13.75 604.02 13.93 604.94 13.93C605.44 13.93 605.89 13.85 606.28 13.69C606.68 13.54 607.01 13.31 607.28 13.05C607.54 12.78 607.77 12.46 607.91 12.10C608.05 11.73 608.12 11.34 608.12 10.92C608.12 10.51 608.05 10.18 607.91 9.91ZM622.10 9.91C621.96 9.65 621.77 9.39 621.53 9.21C621.29 9.03 621.04 8.88 620.75 8.75C620.45 8.62 620.13 8.51 619.82 8.41C619.51 8.32 619.21 8.20 618.91 8.11C618.62 7.99 618.35 7.87 618.11 7.71C617.88 7.56 617.69 7.38 617.55 7.15C617.41 6.93 617.33 6.65 617.33 6.31C617.33 6.06 617.39 5.82 617.48 5.59C617.58 5.35 617.72 5.15 617.90 4.97C618.09 4.79 618.31 4.65 618.59 4.55C618.87 4.45 619.18 4.40 619.54 4.40C620.21 4.40 620.83 4.51 621.39 4.75C621.43 5.54 621.46 5.99 621.46 6.06C621.47 6.29 621.56 6.41 621.75 6.41L622.09 6.41L622.09 4.38C621.21 4.00 620.37 3.81 619.54 3.81C619.08 3.81 618.67 3.88 618.31 4.02C617.95 4.16 617.65 4.34 617.41 4.58C617.18 4.82 616.98 5.08 616.85 5.39C616.73 5.70 616.67 6.02 616.67 6.36C616.67 6.78 616.74 7.14 616.88 7.42C617.02 7.70 617.22 7.92 617.46 8.12C617.69 8.32 617.95 8.46 618.24 8.58C618.53 8.71 618.86 8.82 619.16 8.92C619.47 9.02 619.77 9.11 620.07 9.21C620.37 9.31 620.63 9.45 620.87 9.60C621.11 9.76 621.29 9.94 621.43 10.16C621.57 10.39 621.64 10.68 621.64 11.03C621.64 11.35 621.59 11.66 621.47 11.94C621.36 12.22 621.21 12.46 621.00 12.67C620.79 12.88 620.52 13.05 620.21 13.16C619.91 13.29 619.56 13.33 619.16 13.33C618.38 13.33 617.72 13.20 617.19 12.95C617.18 12.75 617.18 12.54 617.16 12.32C617.15 12.10 617.15 11.91 617.13 11.76C617.12 11.61 617.12 11.52 617.12 11.51C617.11 11.28 617.01 11.17 616.81 11.17L616.48 11.17L616.48 13.02L616.48 13.20L616.48 13.38C617.33 13.75 618.21 13.93 619.14 13.93C619.64 13.93 620.09 13.85 620.48 13.69C620.87 13.54 621.21 13.31 621.47 13.05C621.74 12.78 621.96 12.46 622.10 12.10C622.24 11.73 622.31 11.34 622.31 10.92C622.31 10.51 622.24 10.18 622.10 9.91ZM648.94 13.29L648.84 13.29L648.66 13.29C648.58 13.29 648.49 13.27 648.41 13.27L645.44 9.53C645.36 9.42 645.25 9.32 645.13 9.25C645.57 9.21 645.96 9.11 646.31 8.96C646.66 8.81 646.94 8.61 647.19 8.37C647.43 8.13 647.63 7.85 647.75 7.55C647.88 7.24 647.95 6.89 647.95 6.51C647.95 5.66 647.67 5.03 647.11 4.58C646.55 4.14 645.69 3.92 644.55 3.92L642.14 3.92L640.96 3.92L640.96 4.19C640.96 4.34 641.05 4.42 641.23 4.44L641.37 4.44C641.44 4.44 641.54 4.45 641.68 4.45C641.82 4.45 641.97 4.47 642.14 4.47L642.14 13.26C641.97 13.26 641.82 13.27 641.68 13.27C641.54 13.27 641.44 13.29 641.37 13.29L641.23 13.29C641.05 13.30 640.95 13.38 640.95 13.54L640.95 13.82L642.14 13.82L642.85 13.82L644.03 13.82L644.03 13.54C644.03 13.38 643.93 13.30 643.75 13.29L643.61 13.29C643.54 13.29 643.44 13.27 643.30 13.27C643.16 13.27 643.02 13.26 642.85 13.26L642.85 9.34L644.03 9.34C644.22 9.34 644.36 9.35 644.45 9.39C644.53 9.44 644.62 9.52 644.70 9.62L647.88 13.64C647.93 13.71 647.98 13.75 648.03 13.78C648.09 13.80 648.16 13.82 648.23 13.82L648.30 13.82L648.84 13.82L649.21 13.82L649.21 13.54C649.21 13.38 649.12 13.30 648.94 13.29ZM644.45 8.81L642.85 8.81L642.85 4.48L644.55 4.48C645.43 4.48 646.10 4.66 646.56 5.00C647.02 5.33 647.25 5.87 647.25 6.57C647.25 6.92 647.19 7.21 647.07 7.49C646.94 7.77 646.74 7.99 646.51 8.19C646.27 8.39 645.97 8.55 645.62 8.65C645.27 8.75 644.88 8.81 644.45 8.81ZM666.37 8.86C666.37 8.11 666.25 7.41 666.02 6.79C665.80 6.17 665.48 5.64 665.06 5.19C664.64 4.75 664.15 4.40 663.57 4.16C663.00 3.92 662.34 3.79 661.64 3.79C660.94 3.79 660.31 3.92 659.74 4.16C659.16 4.40 658.66 4.75 658.24 5.19C657.82 5.64 657.50 6.17 657.27 6.79C657.05 7.41 656.92 8.11 656.92 8.86C656.92 9.63 657.05 10.33 657.27 10.95C657.50 11.56 657.82 12.10 658.24 12.54C658.66 12.99 659.16 13.33 659.74 13.57C660.31 13.80 660.94 13.93 661.64 13.93C662.34 13.93 663.00 13.80 663.57 13.57C664.15 13.33 664.64 12.99 665.06 12.54C665.48 12.10 665.80 11.56 666.02 10.95C666.25 10.33 666.37 9.63 666.37 8.86ZM665.62 8.86C665.62 9.56 665.53 10.18 665.34 10.72C665.14 11.27 664.87 11.75 664.52 12.12C664.17 12.50 663.75 12.81 663.26 13.01C662.77 13.20 662.24 13.30 661.64 13.30C661.05 13.30 660.52 13.20 660.03 13.01C659.54 12.81 659.12 12.50 658.77 12.12C658.42 11.75 658.14 11.27 657.94 10.72C657.75 10.18 657.66 9.56 657.66 8.86C657.66 8.18 657.75 7.55 657.94 7.00C658.14 6.45 658.42 5.98 658.77 5.60C659.12 5.22 659.54 4.91 660.03 4.72C660.52 4.52 661.05 4.41 661.64 4.41C662.24 4.41 662.77 4.52 663.26 4.72C663.75 4.91 664.17 5.22 664.52 5.60C664.87 5.98 665.14 6.45 665.34 7.00C665.53 7.55 665.62 8.18 665.62 8.86ZM680.37 9.91C680.23 9.65 680.04 9.39 679.80 9.21C679.56 9.03 679.31 8.88 679.01 8.75C678.72 8.62 678.40 8.51 678.09 8.41C677.78 8.32 677.47 8.20 677.18 8.11C676.89 7.99 676.62 7.87 676.38 7.71C676.14 7.56 675.96 7.38 675.82 7.15C675.68 6.93 675.60 6.65 675.60 6.31C675.60 6.06 675.65 5.82 675.75 5.59C675.85 5.35 675.99 5.15 676.17 4.97C676.35 4.79 676.58 4.65 676.86 4.55C677.14 4.45 677.45 4.40 677.81 4.40C678.48 4.40 679.10 4.51 679.66 4.75C679.70 5.54 679.73 5.99 679.73 6.06C679.74 6.29 679.83 6.41 680.02 6.41L680.36 6.41L680.36 4.38C679.48 4.00 678.64 3.81 677.81 3.81C677.35 3.81 676.94 3.88 676.58 4.02C676.21 4.16 675.92 4.34 675.68 4.58C675.44 4.82 675.25 5.08 675.12 5.39C675.00 5.70 674.94 6.02 674.94 6.36C674.94 6.78 675.01 7.14 675.15 7.42C675.29 7.70 675.49 7.92 675.72 8.12C675.96 8.32 676.21 8.46 676.51 8.58C676.80 8.71 677.12 8.82 677.43 8.92C677.74 9.02 678.03 9.11 678.34 9.21C678.64 9.31 678.90 9.45 679.14 9.60C679.38 9.76 679.56 9.94 679.70 10.16C679.84 10.39 679.91 10.68 679.91 11.03C679.91 11.35 679.85 11.66 679.74 11.94C679.63 12.22 679.48 12.46 679.27 12.67C679.06 12.88 678.79 13.05 678.48 13.16C678.17 13.29 677.82 13.33 677.43 13.33C676.65 13.33 675.99 13.20 675.46 12.95C675.44 12.75 675.44 12.54 675.43 12.32C675.42 12.10 675.42 11.91 675.40 11.76C675.39 11.61 675.39 11.52 675.39 11.51C675.37 11.28 675.28 11.17 675.08 11.17L674.74 11.17L674.74 13.02L674.74 13.20L674.74 13.38C675.60 13.75 676.48 13.93 677.40 13.93C677.91 13.93 678.36 13.85 678.75 13.69C679.14 13.54 679.48 13.31 679.74 13.05C680.01 12.78 680.23 12.46 680.37 12.10C680.51 11.73 680.58 11.34 680.58 10.92C680.58 10.51 680.51 10.18 680.37 9.91ZM694.71 11.94C694.51 11.94 694.43 12.05 694.41 12.28C694.41 12.29 694.41 12.33 694.40 12.39C694.39 12.45 694.39 12.54 694.37 12.68C694.36 12.82 694.34 12.98 694.33 13.19L690.54 13.19C690.37 13.19 690.21 13.20 690.05 13.22C689.88 13.23 689.74 13.26 689.58 13.30L692.68 10.14C692.96 9.84 693.24 9.56 693.49 9.28C693.74 9.00 693.98 8.72 694.18 8.43C694.37 8.13 694.53 7.83 694.64 7.50C694.75 7.18 694.82 6.85 694.82 6.47C694.82 6.02 694.74 5.63 694.58 5.29C694.43 4.96 694.23 4.69 693.97 4.47C693.70 4.24 693.39 4.07 693.06 3.96C692.71 3.85 692.36 3.81 691.98 3.81C691.57 3.81 691.19 3.85 690.84 3.98C690.49 4.10 690.19 4.28 689.92 4.51C689.65 4.73 689.42 5.01 689.25 5.35C689.08 5.68 688.97 6.06 688.91 6.48L689.25 6.54L689.28 6.54L689.32 6.54C689.46 6.54 689.56 6.47 689.60 6.30C689.65 6.02 689.72 5.75 689.86 5.52C689.99 5.28 690.17 5.08 690.37 4.91C690.56 4.75 690.80 4.61 691.07 4.51C691.33 4.41 691.63 4.37 691.94 4.37C692.23 4.37 692.50 4.41 692.76 4.49C693.03 4.58 693.25 4.72 693.46 4.89C693.66 5.05 693.83 5.28 693.95 5.54C694.08 5.81 694.13 6.13 694.13 6.50C694.13 6.82 694.08 7.13 693.98 7.41C693.88 7.69 693.74 7.97 693.57 8.23C693.41 8.50 693.18 8.78 692.94 9.04C692.71 9.31 692.45 9.59 692.17 9.87L688.79 13.29C688.74 13.33 688.73 13.37 688.70 13.43C688.67 13.48 688.66 13.52 688.66 13.58L688.66 13.82L695.04 13.82L695.04 13.52L695.04 13.43L695.04 11.94L694.97 11.94Z"></path></g></svg>